<?xml version="1.0" encoding="utf-8"?>
<!-- Generator: Adobe Illustrator 27.2.0, SVG Export Plug-In . SVG Version: 6.00 Build 0)  -->
<svg version="1.1" xmlns="http://www.w3.org/2000/svg" xmlns:xlink="http://www.w3.org/1999/xlink" x="0px" y="0px"
	 viewBox="0 0 428.07 92.65" style="enable-background:new 0 0 428.07 92.65;" xml:space="preserve">
<style type="text/css">
	.st0{fill:#BA3E3E;}
	.st1{fill:#FFFFFF;}
	.st2{fill:#1000FF;stroke:#1000FF;stroke-miterlimit:10;}
	.st3{fill:none;stroke:#000000;stroke-miterlimit:10;}
	.st4{fill:none;stroke:#000000;stroke-width:6;stroke-miterlimit:10;}
	.st5{fill:none;stroke:#000000;stroke-width:2;stroke-miterlimit:10;}
	.st6{fill:none;stroke:#0000FF;stroke-width:3;stroke-miterlimit:10;}
	.st7{fill:none;stroke:#0000FF;stroke-miterlimit:10;}
	.st8{fill:none;stroke:#0000FF;stroke-width:0.5074;stroke-miterlimit:10;}
	.st9{fill:none;stroke:#0000FF;stroke-width:0.1209;stroke-miterlimit:10;}
	.st10{fill:none;stroke:#0000FF;stroke-width:0.3208;stroke-miterlimit:10;}
	.st11{fill:none;stroke:#0000FF;stroke-width:0.2226;stroke-miterlimit:10;}
	.st12{fill:none;stroke:#0000FF;stroke-width:0.4524;stroke-miterlimit:10;}
	.st13{fill:none;stroke:#0000FF;stroke-width:0.1287;stroke-miterlimit:10;}
	.st14{fill:none;stroke:#0000FF;stroke-width:0.1119;stroke-miterlimit:10;}
	.st15{fill:none;stroke:#0000FF;stroke-width:1.0363;stroke-miterlimit:10;}
	.st16{fill:none;stroke:#0000FF;stroke-width:4;stroke-miterlimit:10;}
	.st17{fill:none;stroke:#0000FF;stroke-width:2.5686;stroke-miterlimit:10;}
	.st18{fill:none;stroke:#0000FF;stroke-width:2;stroke-miterlimit:10;}
	.st19{fill:none;stroke:#0000FF;stroke-width:1.7896;stroke-miterlimit:10;}
	.st20{fill:none;stroke:#0000FF;stroke-width:0.4531;stroke-miterlimit:10;}
	.st21{fill:none;stroke:#0000FF;stroke-width:0.4281;stroke-miterlimit:10;}
	.st22{fill:none;stroke:#0000FF;stroke-width:0.4466;stroke-miterlimit:10;}
	.st23{fill:none;stroke:#0000FF;stroke-width:2.3385;stroke-miterlimit:10;}
	.st24{fill:none;stroke:#0000FF;stroke-width:1.4332;stroke-miterlimit:10;}
	.st25{fill:none;stroke:#0000FF;stroke-width:3.0096;stroke-miterlimit:10;}
	.st26{fill:none;stroke:#0000FF;stroke-width:1.9185;stroke-miterlimit:10;}
	.st27{fill:none;stroke:#000000;stroke-width:2.343;stroke-miterlimit:10;}
	.st28{fill:none;stroke:#000000;stroke-width:1.6138;stroke-miterlimit:10;}
	.st29{fill:none;stroke:#000000;stroke-width:1.4759;stroke-miterlimit:10;}
	.st30{fill:none;stroke:#000000;stroke-width:1.4181;stroke-miterlimit:10;}
</style>
<g id="Layer_1">
</g>
<g id="Layer_2">
	<path d="M87.07,92.45c0,0-3.76-3.53-3.79-7.57c-0.03-3.97,3.54-22.67-18.12-33.41c-0.66-0.33-1.03-1.05-0.93-1.78
		c0.81-5.58,3.73-28.36-1.55-36.72c-0.3-0.48-0.84-0.77-1.41-0.78l-0.05,0c-1.18-0.02-2,1.12-1.67,2.25
		c0.88,2.98,0.66,9.55-6.46,23.58c-0.38,0.76-0.16,1.68,0.53,2.17c2.15,1.56,6.33,5.44,5.97,11.96c-0.04,0.65,0.29,1.27,0.85,1.59
		c4.13,2.34,20.6,14.66,12.7,33.32c-0.02,0.04-0.98,2.03-1,2.07c-0.31,0.98-4.22,4.79-22.94,3.09c-0.77-0.07-1.23-0.94-1.19-1.71
		c0.26-5.94,0.41-30.99-14.46-40.1c-0.35-0.21-0.77-0.28-1.17-0.22c-1.94,0.32-7.68,0.92-4.65-4.05c2.99-4.9,6.55-21.92,6.4-28.74
		c-0.03-1.35-1.55-2.13-2.67-1.38l-1.35,0.91c-0.36,0.24-0.61,0.6-0.71,1.02l-8.1,33.03c-0.21,0.84,0.24,1.7,1.05,2.01
		c4.75,1.85,19.43,9.91,14.84,38.02c-0.07,0.43-0.3,0.83-0.65,1.09c-1.58,1.16-8.61-0.05-26.98,0.06c-0.83,0.01-1.42-0.83-1.44-1.66
		l-1.3-62.45c-0.01-0.36,0.1-0.71,0.3-1l5.1-7.48c0.34-0.5,0.39-1.14,0.14-1.69L7.67,7.69C7.15,6.56,7.95,5.27,9.19,5.25l21.55-0.42
		c0,0,2.05-0.03,2.9,2.52c0.76,2.26,4.53,1.39,5.35,1.16c0.11-0.03,0.23-0.05,0.35-0.05c2.91-0.14,36.19,0.13,40.71,1.28
		c4.71,1.2,7.6,6.7,7.6,9.49s-8.86,23.98-8.17,24.02c0.69,0.03,11.21,1.83,13.08,5.07c19.99,34.74,7.71,44.13,7.71,44.13"/>
	<path d="M290.26,74.3c0.44,1.31-1,2.41-2.02,1.54l-8.66-8.4c-0.85-0.72,0.01,2.74,0.01,3.9l-0.01,19.94c0,0.75,0.56,1.37,1.27,1.38
		l23.44,0.41c0.54,0.01,1.02-0.34,1.22-0.87c1.48-4.02,7.57-20.97,2.5-36.56c-0.43-1.33,0.55-2.4,1.55-1.48l10.81,10.03
		c1.11,1.03,0,2.93-1.36,2.31c-0.4-0.18-0.78-0.34-1.14-0.48c-0.82-0.31-3.88,0.36-3.92,1.28c-0.17,4.64,1.17,17.5-3.12,23.1
		c-0.68,0.89-0.07,2.24,1.01,2.24h32.72c0.71,0,8.13,0.07,8.27-9.65V63.1c0-0.58-0.34-1.1-0.85-1.3c-2.6-1.01-10.4-4.46-13.08-10.24
		c-1.05-2.27-3.58-3.41-6.5-3.91c-1.79-0.31-1.47-2.93,0.33-2.74c0.36,0.04,0.68,0.1,0.96,0.2c3.72,1.33,15.14,10.89,17.86,8.5
		c2.44-2.13,1.54-35.17,1.32-42.25c-0.02-0.74-0.59-1.33-1.29-1.33h-15.16h-3.33c-1.02,0-1.64,1.2-1.09,2.12
		c3.01,5.06,10.2,17.82,9.67,23.09c-0.07,0.65-0.57,1.14-1.17,1.19l-0.96,0.09c-0.64,0.06-1.22-0.39-1.36-1.06
		c-1.03-4.77-5.6-22.75-16.24-25.39c-0.1-0.02-0.2-0.04-0.31-0.04l-6.66,0c-1.01,0-1.63,1.18-1.1,2.1
		c2.7,4.75,8.36,16.34,2.95,21.96c-0.25,0.26-0.57,0.41-0.92,0.41h-1.79c-0.69,0-1.26-0.58-1.29-1.33
		c-0.2-5.09-1.61-23.14-11.63-23.14h-20.33c-0.71,0,4.98,47.33-12.3,38.6l3.87,6.28"/>
	<path d="M427.23,63.2c0-3.71-5.92-14.97-17.09-13.25c-11.17,1.72-9.53-14.44-9.2-26.23c0.33-11.79-4.07-13.14-4.07-13.14
		c-21.49-3.31-28.44,2.29-28.44,2.29c-3.73,1.73-2.32,7.4-2.32,10.45c0,3.05-5.59,10.47-8.38,16.03
		c-2.79,5.56,1.48,44.65,2.46,48.76c0.99,4.11,8.05,3.44,23.17,4.11c15.12,0.66,10.35-6.09,10.35-6.09s-2.3-1.06-3.29-10.86
		s-10.19-7.68-10.19-7.68s-2.79-25.44,0.99-16.05c3.78,9.39,8.05,11.14,15.12,14.59c7.07,3.44,2.43,7.02,2.43,7.02
		c-10.06,2.38,2.18,17.62,2.18,17.62C435.36,100.08,427.23,66.91,427.23,63.2z M388.8,33.32c-0.24,0.03-0.49,0.06-0.75,0.09
		c-2.09,0.24-4.47-0.03-6.44-0.4c-2.31-0.42-3.86-1.83-3.74-3.37c0.24-3.04,0.01-8-3.82-8.94c-5.6-1.37,16.8-5.15,17.5,0
		c0.43,3.16,0.99,6.72,1.36,8.99C393.2,31.4,391.42,32.97,388.8,33.32z"/>
	<path d="M243.4,26.08c0,0-5.16,9.96-4.32,12.43c0.84,2.48,2.78,36.26-1.65,52.2c0,0,22.35,1.8,26.86,1.72
		c4.51-0.08,8.76-0.31,8.76-0.31s4.35-1.7,1.25-7.23c-17.29-30.85-16.16-44.77-8.48-45.29C273.49,39.09,243.4,26.08,243.4,26.08z"/>
	<path d="M153.59,27.07c-2.25-0.11-4.3-1.44-5.43-3.55l-5.78-10.77c-1.18-2.2-3.36-3.56-5.72-3.56h-24.41
		c-2.33,0-4.48,1.32-5.67,3.48L93.5,36.28c-1.39,2.51-1.22,5.67,0.42,7.99l5.14,7.26c0.48,0.68,0.84,1.44,1.07,2.26l9.22,32.82
		c0.78,2.79,3.07,4.78,5.76,5.04c18.73,1.81,30.04,0.79,36.61-0.62c4.35-0.94,6.63-6.14,4.54-10.36l-4.45-8.98
		c-1.14-2.3-1.03-5.1,0.3-7.28l6.69-11c0.71-1.16,1.09-2.53,1.09-3.92V34.2C159.91,30.38,157.12,27.24,153.59,27.07z M132.57,70.11
		c-4.52,21.76-17.16-46.36-6.33-47.78c10.83-1.42,0.91,14.19,6.33,17.98C137.99,44.09,132.57,70.11,132.57,70.11z"/>
	<path d="M159.91,66.5l0,22.29c0,1.56,1.24,2.84,2.8,2.9l21.56,0.78c1.34,0.05,2.54-0.82,2.9-2.11c1.72-6.11,5.9-23.3,0.67-30.04
		c-5.46-7.03,2.82-5.49,5.4-4.87c0.47,0.11,0.9,0.34,1.27,0.67c2.9,2.63,16.51,15.16,14.91,17.02c-1.13,1.32-6.36,0.25-10.03-0.7
		c-1.85-0.48-3.65,0.91-3.64,2.82c0.04,5.69,1.13,13.38-1.36,15.32c-3.5,2.74,36.46,1.31,36.46,1.31s3.84,5.46,4.23-29.98
		l0.04-38.87l-4.66-0.68l4.66-7.64c0-2.64-19.88-6.63-21.67-4.7c-7.09,7.64-13.47,20.6-11.55,24.04
		c2.71,4.86,20.73,12.23,18.89,15.7c-1.84,3.46-23.17-7.63-25.44-17.96c-2.27-10.34,0.45-21.78-9.07-21.78
		c-4.92,0-16.44,6.53-19.83,2.84c-1.84-2-5.17-0.62-5.04,2.1c0.54,10.95,2.52,31.49,9.47,58.74"/>
</g>
<g id="Layer_3">
</g>
</svg>
