<?xml version="1.0" encoding="UTF-8"?><svg id="Layer_2" xmlns="http://www.w3.org/2000/svg" viewBox="0 0 168.88 52.66"><defs><style>.cls-1{fill:#0f0f0f;}</style></defs><path class="cls-1" d="m129.59,17.05c.35-.18.7-.37,1.06-.55.34-.17.68-.33,1.03-.49.07-.03.19-.03.22-.08.22-.37.69-.39,1.05-.56.27-.13.51-.3.77-.43.26-.13.54-.25.81-.37.98-.43,1.96-.86,2.95-1.28.5-.21,1.08-.34,1.48-.64.54-.4,1.22-.54,1.8-.83.47-.24,1.03-.36,1.54-.54.22-.08.42-.18.64-.25.71-.26,1.41-.51,2.12-.76.04-.02.09-.03.13-.05.42-.26.88-.48,1.23-.79.44-.39,1-.57,1.53-.8.72-.31,1.46-.6,2.18-.9.82-.35,1.62-.74,2.45-1.07.92-.37,1.86-.72,2.81-1.05.92-.32,1.81-.66,2.64-1.11.2-.11.45-.14.66-.22.71-.27,1.41-.55,2.11-.82.93-.36,1.87-.71,2.81-1.06.17-.06.37-.08.55-.09.51-.02,1.03,0,1.54-.05.53-.06.87.22,1.28.4.52.23.91.59,1.21,1,.13.17.16.4.23.6.02.04.01.11.05.13.48.34.34.82.4,1.25.02.13.04.26,0,.38-.09.27-.25.44-.59.6-.67.32-1.45.3-2.11.6-.62.29-1.26.56-1.91.82-.45.19-.92.35-1.38.53-.55.21-1.1.44-1.65.64-.4.15-.76.34-1.14.51-.54.25-1.17.35-1.76.53-.14.04-.25.14-.38.2-.56.26-1.13.51-1.69.78-.23.11-.45.26-.67.38-.35.2-.7.42-1.07.58-.42.18-.88.3-1.31.48-.21.09-.37.24-.56.36-.15.09-.32.16-.48.24-.43.23-.85.48-1.29.69-.24.12-.53.17-.78.28-.31.14-.59.32-.89.48-.24.13-.48.25-.72.38-.06.03-.14.05-.18.09-.38.44-.96.58-1.53.77-.33.11-.59.38-.88.58-.05.03-.09.07-.14.09-.61.27-1.24.52-1.83.82-.47.24-.9.54-1.34.82-.6.38-1.16.8-1.79,1.12-.38.19-.65.52-1.01.67-.63.26-1.07.73-1.72.96-.38.13-.69.42-1.03.64-.06.04-.09.12-.14.13-.5.08-.7.47-1.05.69-.32.21-.62.44-.96.63-.29.16-.27.34-.09.53.25.26.52.5.77.76.38.39.72.8,1.11,1.17.44.42.89.84,1.37,1.22.76.62,1.56,1.21,2.33,1.82.22.18.35.44.59.59.63.41,1.25.82,1.75,1.36.36.4.85.72,1.29,1.07.18.14.39.26.58.38.05.03.11.05.14.09.3.34.57.71.9,1.03.3.29.65.71,1.03.76.69.09.84.57,1.21.87.58.47,1.15.96,1.72,1.44.8.68,1.57,1.38,2.39,2.04.36.29.81.48,1.18.76.27.2.59.32.8.63.24.35.65.63,1.01.92.33.27.69.53,1.03.79.4.3.81.59,1.21.9.65.51,1.29,1.04,1.94,1.55.21.16.43.32.67.5-.54.3.25.53,0,.91.21-.08.37-.11.47-.19.18-.14.34-.13.51,0,.35.24.68.5,1.04.73.55.33,1.1.67,1.84.62.3-.02.64-.06.88.04.35.15.63.41.94.63.04.77.74,1.19,1.28,1.71-.1.49-.65.95-.18,1.49-.29.18-.54.34-.81.49-.07.04-.18.01-.27.02v-.2c-.21.08-.43.13-.62.23-.41.22-.73.08-1.08-.11-.26-.14-.53-.27-.82-.34-.48-.12-.97-.21-1.46-.3-.26-.05-.52-.07-.67-.29-.03-.05-.16-.07-.25-.08-.42-.03-.75-.18-1.01-.46-.07-.08-.15-.16-.24-.22-.47-.29-.96-.56-1.4-.87-.22-.15-.38-.38-.5-.6-.09-.17-.15-.28-.41-.23-.35.08-.45-.2-.63-.36-.25-.22-.52-.43-.78-.64-.19-.16-.37-.33-.57-.48-.21-.16-.45-.3-.68-.45-.22-.14-.45-.26-.65-.42-.55-.43-1.08-.88-1.63-1.31-.18-.14-.48-.2-.61-.36-.29-.37-.64-.65-1.06-.92-.54-.34-.96-.81-1.44-1.21-.53-.44-1.08-.86-1.61-1.3-.48-.4-1-.78-1.41-1.23-.2-.22-.42-.36-.69-.51-.23-.13-.38-.36-.58-.54-.14-.13-.29-.25-.44-.37-.24-.2-.49-.38-.72-.58-.35-.3-.67-.62-1.02-.92-.48-.42-.95-.84-1.45-1.24-.7-.57-1.43-1.11-2.13-1.68-.72-.58-1.42-1.17-2.12-1.76-.93-.78-1.86-1.56-2.78-2.34-.68-.58-1.36-1.16-2.02-1.76-.27-.24-.45-.54-.71-.79-.13-.12-.33-.23-.51-.25-.21-.02-.4.07-.43.31-.01.11-.17.21-.28.29-.27.22-.55.44-.84.65-.32.23-.62.47-.97.65-.38.19-.71.4-.93.74-.1.16-.3.28-.46.41-.21.16-.42.32-.64.47-.36.24-.72.47-1.08.71-.05.04-.13.09-.13.14.01.39-.34.46-.66.58-.08.03-.14.11-.2.17-.05.04-.09.1-.15.13-.79.34-1.22.99-1.79,1.52-.31.29-.67.54-1.02.78-.39.27-.76.6-1.22.76-.46.16-.6.43-.76.76-.08.16-.28.28-.44.42-.91.78-1.79,1.58-2.73,2.33-.42.33-.76.7-1.13,1.06-.24.23-.52.43-.77.66-.08.07-.13.16-.2.24-.3.31-.6.61-.89.91-.02.02-.07.03-.08.06-.13.26-.37.4-.69.41-.48,0-.97.08-1.42-.16-.22-.12-.46-.21-.69-.32-.79-.34-1.19-.95-1.43-1.63-.11-.31-.11-.64-.41-.9-.08-.07-.07-.26-.03-.38.14-.43.07-.89.41-1.28.23-.27.33-.63.52-.93.08-.14.24-.25.34-.39.23-.33.44-.66.68-.99.48-.64.97-1.27,1.44-1.91.15-.2.27-.43.4-.64.18-.27.37-.53.55-.79.1-.14.22-.27.28-.42.12-.3.24-.58.56-.78.13-.08.13-.3.23-.43.5-.66,1.02-1.3,1.51-1.96.24-.33.39-.7.64-1.02.23-.3.57-.54.81-.84.42-.5.91-.94,1.17-1.54.15-.35.52-.62.73-.96.38-.58.88-1.12.9-1.83,0-.09.05-.22.14-.27.52-.3.66-.8.99-1.2.12-.15.26-.28.39-.43.06-.06.14-.13.16-.2.19-.78.89-1.34,1.32-2.01.4-.62.84-1.23,1.21-1.87.17-.3.46-.55.69-.83l-.08-.1c-.19.06-.4.08-.55.17-.59.36-1.24.68-1.62,1.25-.04.05-.2.11-.26.08-.25-.1-.41,0-.58.13-.61.46-1.18.99-1.86,1.36-.57.3-.91.78-1.48,1.07-.29.15-.5.4-.73.62-.8.74-1.57,1.5-2.39,2.23-.3.27-.69.46-1.01.71-.58.45-1.15.91-1.7,1.38-.81.7-1.67,1.35-2.55,1.98-.66.48-1.32.96-1.96,1.46-.1.08-.11.23-.14.32-.2.12-.42.21-.6.35-.59.44-1.16.89-1.75,1.33-.34.25-.72.46-1.03.72-.63.53-1.34.97-2,1.47-.44.33-.81.71-1.23,1.05-.27.21-.59.37-.86.58-.37.28-.71.59-1.09.88-.24.18-.48.39-.77.49-.41.14-.71.36-.91.68-.15.24-.41.37-.65.53-.44.29-1.03.44-1.29.94-.12.24-.45.4-.7.58-.37.28-.75.56-1.15.8-.26.16-.6.23-.87.38-.19.11-.35.27-.49.42-.25.27-.53.48-.89.67-.43.22-.79.55-1.18.83-.09.07-.15.17-.25.22-.79.35-1.35.92-1.98,1.42-.32.25-.71.43-1.05.66-.5.33-.98.69-1.47,1.03-.1.07-.21.13-.33.18-.26.12-.52.19-.67.47-.13.25-.52.4-.81.58-.32.2-.66.39-.98.59-.3.18-.6.36-.88.56-.65.46-1.28.92-1.92,1.38-.09.06-.2.1-.3.16-.16.1-.32.2-.48.3-.27.17-.55.34-.81.52-.26.18-.49.37-.74.56-1.03.76-2.07,1.51-3.09,2.27-.16.12-.25.31-.4.44-.23.18-.48.36-.75.5-.59.29-1.16.23-1.71-.11-.28-.17-.63-.27-.93-.42-.12-.06-.2-.17-.28-.27-.05-.06-.06-.17-.12-.21-.66-.38-.85-.96-.98-1.58-.03-.14-.24-.29-.41-.36-.28-.13-.31-.26-.19-.49.25-.48.6-.88,1.09-1.21.07-.05.17-.11.19-.18.18-.69.89-.91,1.47-1.25.39-.23.72-.53,1.1-.77.49-.32,1.02-.61,1.51-.94.57-.38,1.1-.8,1.66-1.19.62-.43,1.25-.84,1.87-1.27.47-.33.92-.7,1.39-1.03.42-.29.89-.54,1.3-.84.54-.39,1.04-.81,1.58-1.21.3-.22.64-.4.95-.61.57-.38,1.14-.76,1.71-1.14,1.08-.72,2.16-1.44,3.24-2.17.02-.01.04-.02.06-.03.59-.47,1.19-.94,1.79-1.4.12-.09.29-.13.42-.21.46-.29.91-.58,1.36-.88.55-.36,1.09-.73,1.63-1.11.61-.43,1.21-.87,1.81-1.3.09-.06.17-.14.23-.23.28-.42.67-.75,1.1-1.06.71-.5,1.41-1.01,2.11-1.52.62-.45,1.25-.9,1.87-1.36.36-.26.69-.55,1.05-.81.28-.21.6-.39.88-.6.68-.51,1.36-1.01,2.02-1.54.54-.42,1.03-.88,1.57-1.3.57-.45,1.16-.89,1.75-1.32.6-.44,1.24-.84,1.81-1.31.66-.55,1.25-1.16,1.88-1.75.21-.19.44-.37.64-.57.07-.07.12-.18.1-.26-.01-.05-.17-.1-.26-.1-1.16-.11-2.32-.22-3.49-.3-.5-.04-1-.03-1.5-.04-2-.05-3.98.12-5.94.37-.91.12-1.81.33-2.72.5-.41.08-.83.18-1.25.22-.26.02-.54-.06-.81-.07-.11,0-.25.02-.33.08-.42.26-.88.38-1.39.42-.31.03-.62.09-.91.2-.67.25-1.32.55-1.99.81-.64.26-1.28.52-1.93.76-.15.06-.33.05-.49.09-.21.05-.43.08-.61.17-.28.13-.69.09-1-.12-.38-.26-.73-.54-1.29-.57-.23-.01-.46-.31-.63-.51-.13-.16-.18-.37-.27-.56-.14-.28-.36-.31-.63-.12-.49.33-.99.65-1.47.99-.49.35-.96.71-1.44,1.07-.33.25-.65.52-1,.76-.32.22-.66.42-.99.62-.05.03-.09.06-.14.09-.31.25-.64.5-.93.76-.28.26-.53.55-.81.82-.11.1-.23.21-.38.26-.52.19-.91.51-1.27.86-.19.19-.4.36-.61.53-.02.01-.04.03-.06.03-.45-.08-.43.27-.63.45-.6.55-1.23,1.06-1.87,1.58-.07.06-.21.06-.25.13-.21.18-.39.42-.64.54-.5.24-.94.58-1.1,1-.16.4-.54.51-.81.75-.24.22-.48.45-.74.66-.48.38-.98.73-1.45,1.11-.41.34-.76.72-1.16,1.05-.22.19-.48.37-.76.49-.27.11-.42.27-.54.49-.06.12-.15.27-.26.31-.47.16-.57.57-.89.83-.09.07-.18.2-.28.21-.31.03-.41.22-.56.41-.24.32-.51.63-.81.91-.73.67-1.5,1.32-2.23,2-.25.23-.4.54-.6.81-.04.05-.07.12-.13.14-.55.21-.84.63-1.22.99-.47.45-1.01.84-1.5,1.27-.24.21-.42.46-.64.68-.45.45-.91.9-1.37,1.34-.65.63-1.29,1.26-1.95,1.89-.07.07-.17.11-.25.17-.24.16-.52.28-.44.62.03.11-.14.27-.25.39-.25.27-.53.53-.79.8-.36.37-.73.74-1.06,1.13-.46.55-.89,1.11-1.32,1.67-.37.47-.73.94-1.1,1.41-.06.08-.17.13-.25.2-.09.08-.17.16-.24.24-.19.21-.34.45-.57.63-.14.1-.39.15-.59.14-.72-.05-1.35-.3-1.96-.61-.37-.19-.73-.37-.93-.71-.07-.12-.13-.25-.22-.37-.21-.29-.33-.6-.33-.95,0-.26-.17-.49-.53-.48-.14-.72.32-1.25.75-1.78.44-.54.89-1.08,1.33-1.63.61-.76,1.23-1.52,1.81-2.3.39-.53.73-1.09,1.1-1.63.18-.27.38-.53.59-.79.49-.63,1-1.25,1.48-1.89.47-.61.9-1.25,1.38-1.86.68-.87,1.38-1.74,2.08-2.6.3-.37.62-.73.92-1.1.61-.76,1.2-1.52,1.81-2.27.51-.63,1.04-1.25,1.55-1.87.89-1.08,1.78-2.17,2.68-3.25.19-.23.42-.44.62-.66.76-.89,1.51-1.79,2.28-2.68.64-.75,1.23-1.54,1.95-2.22.56-.52.82-1.19,1.38-1.7.18-.16.39-.31.54-.48.23-.26.42-.55.63-.83.07-.09.13-.2.23-.27.48-.34.59-.86.85-1.3.14-.23.36-.42.53-.63.08-.1.12-.23.13-.38-.38.06-.7.11-.92.42-.27.37-.77.49-1.25.57-.21.03-.34.08-.44.25-.07.12-.21.25-.35.27-.35.06-.61.17-.75.46-.18.38-.62.39-.99.49-.11.03-.25.06-.31.13-.5.6-1.27.84-2.04,1.08-.16.05-.32.15-.43.26-.49.49-1.07.86-1.75,1.14-.31.13-.57.36-.85.54-.08.06-.16.13-.25.16-.81.27-1.41.81-2.12,1.21-.42.24-.9.42-1.31.67-.56.34-1.17.63-1.64,1.1-.33.32-.86.49-1.29.73-.07.04-.17.06-.21.11-.57.72-1.56.99-2.28,1.55-.39.31-.76.63-1.15.94-.17.14-.34.29-.53.4-.56.31-1.05.68-1.49,1.1-.42.4-.93.75-1.41,1.11-.28.21-.6.39-.88.61-.13.1-.2.27-.33.38-.23.19-.5.36-.73.55-.35.28-.68.58-1.02.87-.38.31-.75.63-1.15.93-.31.23-.65.43-.98.64-.03.02-.07.04-.07.06,0,.49-.59.58-.86.88-.28.32-.54.7-.92.91-.61.33-.99.82-1.47,1.24-.14.13-.21.31-.33.45-.11.13-.24.26-.38.38-.2.18-.42.34-.6.53-.24.25-.43.53-.69.76-.58.53-1.21,1.02-1.77,1.55-.34.33-.6.72-.89,1.08-.05.07-.08.15-.15.2-.33.28-.7.54-.99.85-.48.51-.9,1.07-1.38,1.59-.2.22-.48.38-.71.58-.13.11-.22.25-.33.37-.12.14-.23.27-.36.41-.44.47-.87.95-1.32,1.41-.24.25-.56.44-.79.69-.39.41-.73.84-1.11,1.26-.15.16-.32.31-.48.46-.11.1-.23.2-.35.29-.15.12-.31.23-.47.34-.05.04-.12.07-.16.11-.21.21-.42.43-.64.64-.35.33-.8.43-1.31.34-.41-.08-.83-.15-1.22-.27-.19-.06-.33-.21-.49-.32-.12-.08-.21-.22-.34-.25-.63-.14-1.09-.46-1.36-.94-.14-.25-.19-.55-.22-.84-.03-.31-.15-.56-.39-.79-.08-.07-.14-.21-.11-.29.13-.39.17-.87.47-1.15.4-.37.39-.85.69-1.24.29-.39.42-.87.63-1.3.05-.11.15-.21.21-.32.16-.28.3-.56.46-.84.03-.05.06-.11.1-.16.46-.61.97-1.19,1.37-1.83.32-.51.83-.91,1.03-1.49.1-.29.45-.51.68-.76.06-.06.16-.12.17-.19.04-.42.45-.63.69-.94.3-.4.49-.87.8-1.27.23-.29.29-.68.7-.88.13-.06.26-.2.31-.32.2-.53.65-.93,1.02-1.38.21-.26.4-.54.57-.82.16-.27.29-.55.64-.7.08-.03.12-.12.17-.19.17-.2.34-.41.51-.61.05-.06.14-.1.16-.16.17-.64.83-1.03,1.14-1.61.06-.11.09-.24.13-.36-.03-.01-.05-.03-.08-.04-.09.06-.18.11-.25.18-.44.42-.87.85-1.31,1.28-.02.02-.04.05-.07.07-.68.57-1.36,1.13-2.03,1.71-.08.07-.09.18-.15.26-.04.06-.11.12-.17.18-.24.22-.49.45-.74.67-.24.2-.49.39-.72.6-.12.11-.23.25-.31.39-.23.4-.54.76-.95,1.02-.41.26-.91.43-1.05.92-.03.11-.22.18-.33.26-.61.45-1.04,1-1.41,1.61-.11.18-.36.28-.52.44-.13.14-.48.18-.33.47,0,.02-.06.08-.11.1-.54.2-.86.62-1.22.98-.45.46-.8.98-1.21,1.47-.25.3-.59.53-.9.78-.28.22-.44.55-.65.83-.03.04-.05.12-.08.13-.61.13-.51.7-.88.98-.36.27-.68.57-1.01.87-.09.08-.17.18-.24.28-.09.14-.13.34-.26.42-.64.34-.95.85-1.12,1.44,0,.03-.02.07-.04.08-.68.21-.77.89-1.35,1.19-.2.1-.29.36-.43.54-.23.3-.43.62-.68.9-.21.24-.47.45-.71.67-.55.51-1.09,1.02-1.64,1.53-.45.42-.89.86-1.39,1.25-.26.2-.63.29-.95.43-.05.02-.13,0-.17.03-.59.35-1.13.09-1.66-.12-.11-.04-.27-.14-.27-.22-.03-.25-.23-.31-.45-.36-.73-.18-1.08-.7-1.46-1.18-.09-.11-.05-.29-.06-.44-.03-.4-.06-.8-.1-1.2,0-.06-.05-.11-.06-.17-.02-.15-.07-.3-.05-.44.06-.38.12-.76.22-1.13.08-.29.21-.57.32-.85.04-.11.07-.21.1-.32.08-.32.16-.64.25-.95.02-.07.09-.14.14-.2.05-.07.15-.13.15-.2,0-.64.48-1.14.66-1.72.12-.38.34-.75.46-1.11.32-.98.94-1.84,1.3-2.8.18-.46.33-.93.49-1.4,0-.03,0-.07.03-.08.44-.27.45-.73.66-1.1.42-.75.81-1.5,1.21-2.26.34-.63.67-1.27,1.02-1.9.39-.71.79-1.43,1.19-2.13.11-.19.27-.36.39-.55.07-.1.11-.22.17-.32.23-.43.45-.87.7-1.3.32-.54.65-1.08.98-1.61.1-.16.23-.29.33-.45.12-.18.21-.38.31-.57.11-.21.21-.42.34-.62.28-.45.55-.91.88-1.34.32-.43.67-.85,1.08-1.22.34-.3.8-.42,1.31-.23.48.18.97.33,1.43.53.17.07.27.26.4.39.07.07.15.16.24.17.33.04.47.23.58.45.19.37.39.75.51,1.14.06.19,0,.44-.12.61-.2.31-.49.58-.74.87-.23.28-.43.57-.67.84-.4.44-.68.94-1.13,1.36-.31.28-.43.71-.64,1.08-.03.05-.03.12-.07.14-.47.26-.55.73-.83,1.1-.29.37-.47.8-.7,1.21-.3.53-.56,1.08-.89,1.6-.67,1.05-1.2,2.16-1.75,3.26-.08.17-.26.31-.4.46-.21.24-.37.48-.39.82-.02.28-.19.57-.33.84-.28.55-.58,1.09-.86,1.64-.16.32-.3.64-.42.97-.04.09.02.21.04.32l.12.03c.26-.28.52-.57.79-.84.15-.15.32-.29.48-.44.11-.09.21-.18.33-.27.14-.11.27-.22.43-.31.39-.21.77-.39.96-.81.13-.27.49-.45.72-.69.62-.67,1.22-1.35,1.84-2.02.42-.47.84-.94,1.28-1.39.23-.23.53-.42.78-.65.33-.31.64-.63.96-.95.39-.4.78-.8,1.17-1.2.05-.05.14-.07.2-.12.22-.2.45-.4.66-.61.16-.16.29-.33.45-.5.35-.36.69-.74,1.07-1.08.57-.52,1.19-1,1.77-1.52.17-.15.26-.36.42-.52.2-.21.44-.39.65-.59.16-.15.29-.31.46-.45.6-.49,1.2-.98,1.8-1.47.09-.08.21-.16.24-.26.08-.29.33-.37.61-.45.25-.07.44-.17.48-.42.05-.31.4-.41.63-.59.56-.43,1.11-.88,1.65-1.33.35-.3.65-.64,1.02-.92.46-.35.97-.65,1.43-.99.36-.27.65-.59,1-.86.48-.38,1-.73,1.48-1.12.3-.24.56-.52.83-.78.11-.11.19-.23.29-.35l.1.05c-.03.08-.06.16-.08.22.4-.26.81-.52,1.21-.79.14-.1.25-.23.38-.35.06-.06.12-.12.19-.17.63-.41,1.27-.79,1.88-1.21.78-.53,1.54-1.08,2.29-1.63.3-.22.55-.47.84-.69.12-.09.29-.14.43-.2.23-.1.61-.07.51-.44,0-.04.07-.1.12-.14.43-.33.91-.58,1.49-.69.09-.02.18-.05.25-.1.38-.28.75-.58,1.13-.86.21-.15.5-.24.66-.42.27-.31.65-.45,1.04-.59.06-.02.13-.06.17-.11.55-.72,1.52-1.06,2.17-1.68.12-.11.34-.15.49-.24.22-.14.4-.31.63-.43.27-.15.57-.27.92-.43,0,.34.16.35.39.29.6-.17,1.07.01,1.52.37.38.3.84.53,1.27.79.35.21.35.22.06.5-.04.04-.07.08-.12.13.08.05.14.1.21.13.61.27.74.6.33,1.06-.31.36-.71.67-1.08.98-.55.47-1.11.93-1.68,1.38-.12.1-.31.14-.45.23-.18.11-.44.2-.5.35-.13.35-.41.58-.7.82-.26.21-.46.47-.73.67-.35.27-.73.5-1.09.75-.09.07-.13.19-.2.29-.07.11-.11.25-.21.33-.3.23-.64.43-.95.66-.07.05-.1.13-.15.2-.19.21-.19.53-.6.62-.16.04-.36.24-.37.38-.03.42-.43.54-.73.75-.27.19-.52.41-.74.64-.35.37-.55.84-1.09,1.09-.18.08-.31.25-.45.39-.49.51-.92,1.08-1.48,1.54-.37.3-.69.62-1.01.94-.26.26-.45.58-.69.86-.06.07-.14.14-.22.18-.39.16-.63.43-.84.73-.2.28-.47.52-.71.77-.17.18-.35.34-.51.53-.13.14-.22.31-.35.45-.24.24-.46.47-.58.78-.09.21-.34.38-.52.56-.15.14-.36.26-.44.43-.07.14,0,.34.01.51.03,0,.06,0,.09,0-.06.13-.13.26-.19.38-.67-.02-1.29.4-1.54.93-.18.37-.51.69-.77,1.03-.15.19-.3.38-.45.57.03.02.06.05.09.07.2-.12.49-.21.59-.37.24-.41.76-.55,1.08-.88.28-.29.66-.52.95-.81.17-.17.24-.43.42-.58.47-.38.98-.72,1.47-1.07.1-.07.17-.16.27-.24.28-.21.56-.42.84-.63.27-.19.55-.37.81-.57.29-.22.57-.45.85-.68.17-.14.3-.31.47-.45.55-.44,1.11-.88,1.66-1.32.53-.44,1.03-.9,1.59-1.32.48-.36,1.08-.62,1.51-1.02.35-.32.79-.49,1.17-.75.67-.46,1.37-.9,2.05-1.36.45-.31.88-.64,1.33-.95.09-.06.19-.13.29-.18.82-.39,1.54-.89,2.29-1.37.78-.49,1.63-.9,2.44-1.36.61-.35,1.2-.72,1.81-1.06.2-.12.44-.19.65-.3.84-.47,1.66-.96,2.51-1.42.94-.51,1.9-.98,2.85-1.48.84-.44,1.62-.96,2.5-1.33.96-.4,1.78-.97,2.74-1.37.82-.34,1.55-.81,2.33-1.22.53-.28,1.06-.57,1.6-.85,1.05-.54,2.1-1.1,3.16-1.62.64-.32,1.32-.6,1.98-.89.05-.02.13-.03.16-.06.44-.47,1.14-.39,1.71-.56.13-.04.33.1.49.17.12.06.2.2.32.22.91.2,1.29.89,1.86,1.41.07.07.1.18.13.27.07.19.09.4.2.57.42.69.4,1.25-.3,1.73-.43.3-.57.72-.91,1.06-.47.46-.87.97-1.32,1.45-.43.46-.97.87-1.3,1.38-.42.64-1.19,1-1.64,1.59-.58.77-1.42,1.39-1.78,2.28-.02.04-.03.08-.07.1-.54.29-.82.74-1.16,1.18-.46.59-1.07,1.1-1.6,1.66-.33.35-.63.72-.94,1.08l.06.07c.14-.08.28-.15.41-.24.78-.52,1.56-1.04,2.33-1.58.43-.3.83-.63,1.25-.94.1-.07.2-.17.31-.19.49-.1.77-.41,1.11-.68.47-.36.97-.7,1.46-1.05.71-.51,1.42-1.02,2.14-1.52.73-.5,1.44-1.03,2.23-1.45.57-.3,1.01-.73,1.57-1.04.57-.31,1.09-.69,1.64-1.02.66-.4,1.34-.79,2.01-1.19.16-.1.31-.22.47-.32.54-.31,1.14-.56,1.63-.92.83-.6,1.8-1,2.7-1.5,1.09-.61,2.19-1.22,3.3-1.79.6-.31,1.25-.54,1.87-.82.3-.14.56-.35.86-.48.77-.34,1.57-.64,2.33-.99.68-.31,1.34-.65,2.01-.98.26-.13.5-.27.76-.39.1-.05.24-.14.32-.12.55.18.9-.12,1.29-.38.14.19.47.25.37.55-.01.03.14.15.21.14.51-.03.84.14,1.03.55.05.11.24.16.34.26.17.16.37.33.46.52.26.56.45,1.14.46,1.76,0,.21-.09.37-.29.48-.27.15-.54.3-.81.45-.07.04-.13.09-.19.13-.41.32-.82.64-1.22.96-.23.19-.46.38-.7.56-1.02.76-2.04,1.51-3.06,2.27-.61.45-1.23.9-1.85,1.35-.1.08-.18.18-.26.37.35,0,.71.01,1.06.02.08,0,.16-.03.25-.04,1.13-.04,2.27-.12,3.4-.11,1.27.02,2.56,0,3.82.26.86.17,1.77.19,2.62.4.81.2,1.57.55,2.36.83.22.08.45.14.66.22.94.39,1.71.97,2.51,1.53.26.18.44.28.73.05.13-.1.34-.14.52-.2.87-.28,1.5-.84,2.2-1.33.6-.43,1.24-.82,1.86-1.23.31-.2.63-.39.93-.6.58-.4,1.14-.81,1.72-1.21.11-.08.24-.13.36-.2.63-.36,1.27-.71,1.89-1.08.23-.14.41-.34.62-.5.61-.45,1.23-.88,1.85-1.33.53-.38.98-.82,1.34-1.32.17-.23.28-.5.46-.72.37-.45.93-.53,1.52-.47.23.02.42.04.57-.14.04-.05.19-.1.24-.08.71.29,1.45.55,1.76,1.25.04.09.08.21.17.26.31.17.4.42.47.7.06.26.22.51.27.78.04.26.02.53-.03.78-.12.68-.65,1.21-.95,1.82-.05.09-.09.2-.17.26-.31.23-.49.53-.66.84-.13.24-.35.44-.52.67-.07.09-.1.2-.15.3-.04.08-.06.17-.11.25-.41.58-.87,1.14-1.24,1.74-.35.58-.75,1.12-1.17,1.66-.3.37-.46.81-.74,1.2-.2.29-.5.52-.73.79-.14.16-.22.35-.33.52.03.04.07.07.1.11Zm-1.36,1.84c-.21.27-.38.49-.54.71-.45.67-.89,1.35-1.35,2.01-.27.38-.59.74-.88,1.12-.04.05-.04.11-.07.17-.07.14-.13.28-.24.4-.14.15-.32.28-.49.42.32.24.49.07.66-.06.1-.07.17-.17.27-.23.26-.17.53-.32.78-.5.52-.36,1.02-.75,1.54-1.1.2-.14.41-.5.36-.7-.06-.27-.13-.54-.13-.81,0-.45.05-.9.08-1.42Zm31.6,28.06c.18-.05.34-.06.44-.13.1-.08.23-.27.19-.31-.09-.1-.27-.16-.43-.21-.05-.01-.19.06-.19.11-.02.17,0,.35,0,.55Z"/><path class="cls-1" d="m118.88,7.24c-.59.13-1.12.29-1.67.36-.62.09-1.26.12-1.89.14-.61.02-1.1-.28-1.64-.47-.47-.17-.73-.53-1.14-.74-.25-.13-.53-.19-.8-.28-.02,0-.05,0-.07,0-.12-.03-.64-.61-.65-.72-.04-.46.15-.87.35-1.28.22-.44.4-.88.21-1.37-.04-.1.05-.28.15-.35.13-.1.34-.14.51-.2.24-.08.52-.1.62-.35.02-.05.1-.09.17-.11.56-.13,1.12-.26,1.69-.38.45-.09.9-.15,1.35-.24.31-.06.59-.09.89.07.62.34,1.3.61,1.88.98.49.32.95.7,1.14,1.24.03.07.1.14.13.21.06.15.2.32.16.45-.18.55-.09,1.15-.48,1.65-.08.11-.09.27-.1.4-.03.3-.31.6-.65.63-.24.02-.37.08-.17.36Z"/></svg>