<?xml version="1.0" encoding="utf-8"?>
<!-- Generator: Adobe Illustrator 27.4.0, SVG Export Plug-In . SVG Version: 6.00 Build 0)  -->
<svg version="1.1" id="monika-logo" xmlns="http://www.w3.org/2000/svg" xmlns:xlink="http://www.w3.org/1999/xlink" x="0px" y="0px"
	 viewBox="0 0 427.1 94.3" style="enable-background:new 0 0 427.1 94.3;" xml:space="preserve">
<style type="text/css">
	.st0{fill:url(#SVGID_1_);}
	.st1{fill:url(#SVGID_00000031197272149693776410000001484790774995791010_);}
	.st2{fill:url(#SVGID_00000104663996622392448190000014587714548466630021_);}
	.st3{fill:url(#SVGID_00000150078049651925053820000015031166907007363999_);}
	.st4{fill:url(#SVGID_00000031187239358602887010000001226332664411794570_);}
	.st5{fill:url(#SVGID_00000143612303679972401110000014699281586131664267_);}
	.st6{fill:url(#SVGID_00000080182196567080656890000001017125508255533755_);}
</style>
<radialGradient id="SVGID_1_" cx="49.2629" cy="49.8002" r="46.9478" gradientTransform="matrix(-1 0 0 -8 98.5259 448.2021)" gradientUnits="userSpaceOnUse">
	<stop  offset="7.907443e-02" style="stop-color:#27377A"/>
	<stop  offset="0.144" style="stop-color:#273477"/>
	<stop  offset="0.539" style="stop-color:#3462A1"/>
	<stop  offset="0.6553" style="stop-color:#3667A6"/>
</radialGradient>
<path class="st0" d="M81.4,94.1c0,0-3.8-3.6-3.8-7.7c0-4,3.6-23-18.4-33.9c-0.7-0.3-1-1.1-0.9-1.8C59,45.1,62,22,56.6,13.5
	c-0.3-0.5-0.9-0.8-1.4-0.8h-0.1c-1.2,0-2,1.1-1.7,2.3c0.9,3,0.7,9.7-6.5,23.9c-0.4,0.8-0.2,1.7,0.5,2.2c2.2,1.6,6.4,5.5,6.1,12.1
	c0,0.7,0.3,1.3,0.9,1.6c4.2,2.4,20.9,14.9,12.9,33.8c0,0-1,2.1-1,2.1c-0.3,1-4.3,4.9-23.3,3.1c-0.8-0.1-1.2-1-1.2-1.7
	c0.3-6,0.4-31.4-14.7-40.7c-0.4-0.2-0.8-0.3-1.2-0.2c-2,0.3-7.8,0.9-4.7-4.1c3-5,6.6-22.3,6.5-29.2c0-1.4-1.6-2.1-2.7-1.4l-1.4,0.9
	c-0.4,0.2-0.6,0.6-0.7,1l-8.2,33.5c-0.2,0.9,0.2,1.7,1.1,2c4.8,1.9,19.7,10,15,38.5c-0.1,0.4-0.3,0.8-0.7,1.1
	c-1.6,1.2-8.7-0.1-27.4,0.1c-0.8,0-1.4-0.8-1.5-1.7L0,28.8c0-0.4,0.1-0.7,0.3-1l5.2-7.6c0.3-0.5,0.4-1.2,0.1-1.7L0.9,8.2
	C0.3,7,1.1,5.7,2.4,5.7l21.8-0.4c0,0,2.1,0,2.9,2.6c0.8,2.3,4.6,1.4,5.4,1.2C32.7,9,32.8,9,33,9c3-0.1,36.7,0.1,41.3,1.3
	c4.8,1.2,7.7,6.8,7.7,9.6s-9,24.3-8.3,24.4c0.1,0,0.4,0.1,0.9,0.2c7.5,1.9,13.8,7.1,17.2,14.1c13.2,27.7,3,35.6,3,35.6"/>
<radialGradient id="SVGID_00000078024641648362530930000013538943259155623812_" cx="309.9351" cy="52.6537" r="41.6726" gradientTransform="matrix(-1 0 0 -8 619.8702 473.8829)" gradientUnits="userSpaceOnUse">
	<stop  offset="7.907443e-02" style="stop-color:#27377A"/>
	<stop  offset="0.144" style="stop-color:#273477"/>
	<stop  offset="0.539" style="stop-color:#3462A1"/>
	<stop  offset="0.6553" style="stop-color:#3667A6"/>
</radialGradient>
<path style="fill:url(#SVGID_00000078024641648362530930000013538943259155623812_);" d="M287.4,75.7c0.4,1.3-1,2.4-2,1.6l-8.8-8.5
	c-0.9-0.7,0,2.8,0,4l0,20.2c0,0.8,0.6,1.4,1.3,1.4l23.8,0.4c0.5,0,1-0.3,1.2-0.9c1.5-4.1,7.7-21.3,2.5-37.1
	c-0.4-1.3,0.6-2.4,1.6-1.5l11,10.2c1.1,1,0,3-1.4,2.3c-0.4-0.2-0.8-0.3-1.2-0.5c-0.8-0.3-3.9,0.4-4,1.3c-0.2,4.7,1.2,17.7-3.2,23.4
	c-0.7,0.9-0.1,2.3,1,2.3h33.2c0.7,0,8.2,0.1,8.4-9.8V64.4c0-0.6-0.3-1.1-0.9-1.3c-2.6-1-10.5-4.5-13.3-10.4c-1.1-2.3-3.6-3.5-6.6-4
	c-1.8-0.3-1.5-3,0.3-2.8c0.4,0,0.7,0.1,1,0.2c3.8,1.3,15.3,11,18.1,8.6c2.5-2.2,1.6-35.7,1.3-42.8c0-0.8-0.6-1.3-1.3-1.3h-15.4h-3.4
	c-1,0-1.7,1.2-1.1,2.1c3.1,5.1,10.3,18.1,9.8,23.4c-0.1,0.7-0.6,1.2-1.2,1.2l-1,0.1c-0.6,0.1,8.9,2.5,8.8,1.8
	c-1-4.8-15.8-26-26.6-28.6c-0.1,0-0.2,0-0.3,0l-6.8,0c-1,0-1.7,1.2-1.1,2.1c2.7,4.8,8.5,16.7,2.9,22.3c-0.2,0.2-0.5,0.3-0.9,0.3
	l-1.8,0c-0.7,0-1.3-0.6-1.3-1.3c-0.2-5.2-1.6-23.5-11.8-23.5h-20.6c-0.6,0,16.3,34.4-6.7,39.9c-2.3,0.6-3.1,3.6-1.9,5.6v0"/>
<radialGradient id="SVGID_00000041996945614030427130000011393049906521083025_" cx="390.9428" cy="52.068" r="39.18" gradientTransform="matrix(-1 7.480058e-05 -5.984047e-04 -8 781.9169 468.5828)" gradientUnits="userSpaceOnUse">
	<stop  offset="7.907443e-02" style="stop-color:#27377A"/>
	<stop  offset="0.144" style="stop-color:#273477"/>
	<stop  offset="0.539" style="stop-color:#3462A1"/>
	<stop  offset="0.6553" style="stop-color:#3667A6"/>
</radialGradient>
<path style="fill:url(#SVGID_00000041996945614030427130000011393049906521083025_);" d="M426.2,64.5c0-3.8-6-15.2-17.3-13.4
	c-11.3,1.7-9.7-14.6-9.3-26.6c0.3-12-4.1-13.3-4.1-13.3c-21.8-3.4-28.8,2.3-28.8,2.3c-3.8,1.8-2.4,7.5-2.4,10.6s-5.7,10.6-8.5,16.3
	c-2.8,5.6,1.5,45.3,2.5,49.4c1,4.2,8.2,3.5,23.5,4.2c15.3,0.7,10.5-6.2,10.5-6.2s-2.3-1.1-3.3-11c-1-9.9-10.3-7.8-10.3-7.8
	s-2.8-25.8,1-16.3c3.8,9.5,8.2,11.3,15.3,14.8c7.2,3.5,2.5,7.1,2.5,7.1c-10.2,2.4,2.2,17.9,2.2,17.9
	C434.5,101.9,426.2,68.2,426.2,64.5z M387.3,34.2c-0.2,0-0.5,0.1-0.8,0.1c-2.1,0.2-4.5,0-6.5-0.4c-2.3-0.4-3.9-1.9-3.8-3.4
	c0.2-3.1,0-8.1-3.9-9.1c-5.7-1.4,17-5.2,17.7,0c0.4,3.2,1,6.8,1.4,9.1C391.7,32.2,389.9,33.8,387.3,34.2z"/>
<linearGradient id="SVGID_00000119812964970576386770000010237158749948406443_" gradientUnits="userSpaceOnUse" x1="233.7876" y1="60.4664" x2="272.2972" y2="60.4664">
	<stop  offset="7.907443e-02" style="stop-color:#27377A"/>
	<stop  offset="0.144" style="stop-color:#273477"/>
	<stop  offset="0.539" style="stop-color:#3462A1"/>
	<stop  offset="0.6553" style="stop-color:#3667A6"/>
</linearGradient>
<path style="fill:url(#SVGID_00000119812964970576386770000010237158749948406443_);" d="M239.8,26.8c0,0-5.2,10.1-4.4,12.6
	s2.8,36.8-1.7,52.9c0,0,22.7,1.8,27.2,1.7c4.6-0.1,8.9-0.3,8.9-0.3s4.4-1.7,1.3-7.3c-17.5-31.3-16.4-45.4-8.6-45.9
	C270.3,40,239.8,26.8,239.8,26.8z"/>
<radialGradient id="SVGID_00000035497705463912407560000002820929113311506609_" cx="121.0675" cy="51.9953" r="38.4251" gradientTransform="matrix(-0.4332 -0.9013 7.2105 -3.4654 -201.4019 341.2972)" gradientUnits="userSpaceOnUse">
	<stop  offset="7.907443e-02" style="stop-color:#27377A"/>
	<stop  offset="0.144" style="stop-color:#273477"/>
	<stop  offset="0.539" style="stop-color:#3462A1"/>
	<stop  offset="0.6553" style="stop-color:#3667A6"/>
</radialGradient>
<path style="fill:url(#SVGID_00000035497705463912407560000002820929113311506609_);" d="M148.8,27.8c-2.3-0.1-4.4-1.5-5.5-3.6
	l-5.9-10.9c-1.2-2.2-3.4-3.6-5.8-3.6h-24.7c-2.4,0-4.5,1.3-5.7,3.5L87.9,37.2c-1.4,2.5-1.2,5.7,0.4,8.1l5.2,7.4
	c0.5,0.7,0.9,1.5,1.1,2.3l9.3,33.3c0.8,2.8,3.1,4.8,5.8,5.1c19,1.8,30.5,0.8,37.1-0.6c4.4-1,6.7-6.2,4.6-10.5l-4.5-9.1
	c-1.2-2.3-1-5.2,0.3-7.4l6.8-11.2c0.7-1.2,1.1-2.6,1.1-4V35.1C155.2,31.2,152.4,28,148.8,27.8z M127.5,71.5
	c-4.6,22.1-17.4-47-6.4-48.4c11-1.4,0.9,14.4,6.4,18.2C133,45.1,127.5,71.5,127.5,71.5z"/>
<radialGradient id="SVGID_00000133528201039637534830000014309987348196414141_" cx="193.321" cy="52.0872" r="40.1375" gradientTransform="matrix(-1 0 0 -8 386.642 468.7849)" gradientUnits="userSpaceOnUse">
	<stop  offset="7.907443e-02" style="stop-color:#27377A"/>
	<stop  offset="0.144" style="stop-color:#273477"/>
	<stop  offset="0.539" style="stop-color:#3462A1"/>
	<stop  offset="0.6553" style="stop-color:#3667A6"/>
</radialGradient>
<path style="fill:url(#SVGID_00000133528201039637534830000014309987348196414141_);" d="M155.2,67.8v22.6c0,1.6,1.3,2.9,2.8,2.9
	l21.9,0.8c1.4,0.1,2.6-0.8,2.9-2.1c1.7-6.2,6-23.6,0.7-30.5c-5.5-7.1,2.9-5.6,5.5-4.9c0.5,0.1,0.9,0.3,1.3,0.7
	c2.9,2.7,16.7,15.4,15.1,17.3c-1.1,1.3-6.4,0.3-10.2-0.7c-1.9-0.5-3.7,0.9-3.7,2.9c0,5.8,1.1,13.6-1.4,15.5c-3.5,2.8,37,1.3,37,1.3
	s3.9,5.5,4.3-30.4l0-39.4l-4.7-0.7l4.7-7.7c0-2.7-20.2-6.7-22-4.8c-7.2,7.7-13.7,20.9-11.7,24.4c2.7,4.9,21,12.4,19.2,15.9
	c-1.9,3.5-23.5-7.7-25.8-18.2c-2.3-10.5,0.5-22.1-9.2-22.1c-5,0-16.7,6.6-20.1,2.9c-1.9-2-5.2-0.6-5.1,2.1
	c0.5,11.1,2.6,31.9,9.6,59.6"/>
<radialGradient id="SVGID_00000163038752190131051780000012200861257610778515_" cx="253.0382" cy="18.7234" r="12.7179" gradientTransform="matrix(1 0 0 2 0 -18.7234)" gradientUnits="userSpaceOnUse">
	<stop  offset="4.267294e-03" style="stop-color:#273477"/>
	<stop  offset="7.907443e-02" style="stop-color:#27377A"/>
	<stop  offset="0.7296" style="stop-color:#3462A1"/>
	<stop  offset="0.9067" style="stop-color:#3667A6"/>
</radialGradient>
<path style="fill:url(#SVGID_00000163038752190131051780000012200861257610778515_);" d="M250.9,26.9c-3.6-0.4-8.8-4.9-8.6-6.7
	c0.3-3.6,2.3-6.6-3.7-7.5c-8.9-1.3,28.8-5.2,30.1,0.9c0.8,3.8-0.8,6.1-0.1,8.8c0.5,2-2.2,4-6.3,4.6c-0.4,0.1-0.8,0.1-1.2,0.2
	C257.8,27.4,254,27.2,250.9,26.9z"/>
</svg>
